<svg xmlns="http://www.w3.org/2000/svg" fill="none" viewBox="0 0 256 256"><path d="M249 128a121 121 0 1 1-242 0 121 121 0 0 1 242 0Z" stroke="url(#a)" stroke-width="14"/><path d="M144.3 120.6a10.3 10.3 0 0 0-4-6.7c-12-10.6-40.6-11.3-73.3-1.1l40.5-23.4c29.2-4.1 36 14.2 36.8 31.2Z" fill="url(#b)"/><path d="M140.3 114a10.3 10.3 0 0 0-11.5-.8l-50.1 29.1a15.6 15.6 0 0 1-17.5-1 15.7 15.7 0 0 1-4.1-4.6 15.8 15.8 0 0 1-1.5-12 15.7 15.7 0 0 1 2.7-5.6 15.7 15.7 0 0 1 4.7-4l4-2.3c32.7-10.2 61.2-9.5 73.3 1.1Z" fill="url(#c)"/><path d="M144.3 120.6a10.3 10.3 0 0 0-4-6.7c-12-10.6-40.6-11.3-73.3-1.1l40.5-23.4c29.2-4.1 36 14.2 36.8 31.2Z" fill="url(#d)" opacity=".3"/><path d="M140.3 114a10.3 10.3 0 0 0-11.5-.8l-50.1 29.1a15.6 15.6 0 0 1-17.5-1 15.7 15.7 0 0 1-4.1-4.6 15.8 15.8 0 0 1-1.5-12 15.7 15.7 0 0 1 2.7-5.6 15.7 15.7 0 0 1 4.7-4l4-2.3c32.7-10.2 61.2-9.5 73.3 1.1Z" fill="url(#e)" opacity=".3"/><path d="m176 86.2-.5 94.2a15.7 15.7 0 0 1-4.7 11 15.6 15.6 0 0 1-11 4.6 15.6 15.6 0 0 1-11-4.7 15.7 15.7 0 0 1-4.6-11l.3-58a9.5 9.5 0 0 0-.2-1.8c-.8-17-7.6-35.2-36.9-31.1l37.2-21.6a20.9 20.9 0 0 1 21 0 21 21 0 0 1 7.6 7.8 21 21 0 0 1 2.8 10.6Z" fill="url(#f)"/><path d="M84.3 178.4a47 47 0 0 0 25 14.3 5 5 0 0 0 4.3-.9 4.9 4.9 0 0 0 1.9-3.8v-25.5c0-.8 0-2.3-.5-3-.4-.7-1-1.4-1.7-1.8-.7-.4-1.8-.6-2.6-.6a5 5 0 0 0-2.4.6l-22.8 13.2a5 5 0 0 0-1.6 1.5 4.9 4.9 0 0 0-.7 4.1 4.9 4.9 0 0 0 1 2Z" fill="url(#g)"/><defs><linearGradient id="a" x1="92.5" x2="160.5" y1="4" y2="252.5" gradientUnits="userSpaceOnUse"><stop stop-color="#4CFB8E"/><stop offset=".5" stop-color="#3DE8AF"/><stop offset="1" stop-color="#27CEDE"/></linearGradient><linearGradient id="b" x1="113.6" x2="106.5" y1="84.4" y2="113.2" gradientUnits="userSpaceOnUse"><stop offset=".1" stop-color="#2C7AA8"/><stop offset="1" stop-color="#5FFEAE"/></linearGradient><linearGradient id="c" x1="111.4" x2="79.3" y1="85.9" y2="164.9" gradientUnits="userSpaceOnUse"><stop offset=".1" stop-color="#267DAF"/><stop offset="1" stop-color="#5FFEAE"/></linearGradient><linearGradient id="d" x1="125.1" x2="110.3" y1="82.7" y2="108.4" gradientUnits="userSpaceOnUse"><stop offset="0"/><stop offset="1" stop-color="#0E0E0E" stop-opacity="0"/></linearGradient><linearGradient id="e" x1="98.5" x2="97" y1="103.4" y2="137.9" gradientUnits="userSpaceOnUse"><stop offset=".1"/><stop offset=".9" stop-color="#0E0E0E" stop-opacity="0"/></linearGradient><linearGradient id="f" x1="137.6" x2="165.6" y1="69.3" y2="185.2" gradientUnits="userSpaceOnUse"><stop offset=".1" stop-color="#4DFC8D"/><stop offset="1" stop-color="#1FC3F1"/></linearGradient><linearGradient id="g" x1="36.8" x2="146.5" y1="129.8" y2="200.1" gradientUnits="userSpaceOnUse"><stop offset=".1" stop-color="#3EFE99"/><stop offset="1" stop-color="#2AABF0"/></linearGradient></defs></svg>