<svg xmlns="http://www.w3.org/2000/svg" width="255" height="256" fill="none"><path d="M127 255a127 127 0 1 0 0-254 127 127 0 0 0 0 254z" fill="#fff"/><path d="M197 86h-22c-3 0-5-1-7-3l-9-11c-3-3-8-3-11 0l-8 9a13 13 0 0 1-10 5H6c-4 10-6 21-7 31h117l5-2 11-11 5-3h1c2 0 4 1 5 3l10 10c1 2 4 3 7 3h95c-1-11-3-21-7-31h-51zM70 184c2 0 4-1 5-3l11-11c2-2 4-2 5-2h1l5 2 10 10c1 2 4 3 7 3h129c5-10 9-20 11-31H129c-2 0-5-1-6-3l-10-11a7 7 0 0 0-10 0l-8 9c-3 3-7 5-11 5H1c2 11 6 21 10 32h59zm92-133 5-2 11-12 5-2h1c2 0 4 1 5 3l9 10c2 2 4 3 7 3h25a129 129 0 0 0-205 0h137zm-50 164H79c-3 0-6-1-7-3l-9-10c-3-3-8-3-11-1v1l-8 9a13 13 0 0 1-10 4h-1a129 129 0 0 0 188 0H112z" fill="#000"/></svg>