<svg xmlns="http://www.w3.org/2000/svg" width="256" height="256" fill="none"><g fill-rule="evenodd"><path d="M12 74h232a128 128 0 0 0-232 0z" fill="url(#a)"/><path d="M0 133h256v-5c0-19-4-38-12-54H12a128 128 0 0 0-12 59z" fill="url(#b)"/><path d="M17 192h222c10-17 16-38 17-59H0c1 21 7 42 17 59z" fill="url(#c)"/><path d="M239 192a128 128 0 0 1-222 0h222z" fill="url(#d)"/></g><defs><linearGradient id="a" x1="125" y1="0" x2="125" y2="74" gradientUnits="userSpaceOnUse"><stop stop-color="#bccfec"/><stop offset=".5" stop-color="#b5cceb"/><stop offset=".7" stop-color="#6eaede"/><stop offset="1" stop-color="#63a9dc"/></linearGradient><linearGradient id="b" x1="125" y1="74" x2="125" y2="133" gradientUnits="userSpaceOnUse"><stop stop-color="#de7f72"/><stop offset=".3" stop-color="#dc796a"/><stop offset=".7" stop-color="#c84a24"/><stop offset="1" stop-color="#c5441b"/></linearGradient><linearGradient id="c" x1="125" y1="133" x2="125" y2="192" gradientUnits="userSpaceOnUse"><stop stop-color="#efea7c"/><stop offset=".5" stop-color="#edd76d"/><stop offset=".8" stop-color="#e99e40"/><stop offset="1" stop-color="#e89539"/></linearGradient><linearGradient id="d" x1="125" y1="192" x2="125" y2="256" gradientUnits="userSpaceOnUse"><stop stop-color="#cdf9cf"/><stop offset=".4" stop-color="#c4f4c2"/><stop offset=".8" stop-color="#79c54f"/><stop offset="1" stop-color="#70bf41"/></linearGradient></defs></svg>