<svg version="1.1" id="Layer_1" xmlns="http://www.w3.org/2000/svg" xmlns:xlink="http://www.w3.org/1999/xlink" x="0" y="0" viewBox="0 0 90.4 56" xml:space="preserve"><style>.st1{fill:#e31937}.st2{fill:#fff}.st4{fill:#bf0a30}.st6{fill:#dadada}</style><defs><path id="SVGID_1_" d="M62.4 0c15.5 0 28 12.5 28 28s-12.5 28-28 28-28-12.5-28-28 12.5-28 28-28z"/></defs><clipPath id="SVGID_2_"><use xlink:href="#SVGID_1_" overflow="visible"/></clipPath><g clip-path="url(#SVGID_2_)"><path d="M91.4 28.2c0 16-13 29-29 29s-29-13-29-29 13-29 29-29 29 13 29 29z"/><path class="st1" d="M33.7 28.2c0 9.4 4.5 17.7 11.5 22.9V5.3c-7 5.2-11.5 13.5-11.5 22.9zM91.1 28.2c0-9.4-4.5-17.7-11.5-22.9v45.9c7-5.3 11.5-13.6 11.5-23z"/><path class="st2" d="M45.2 5.3v45.9c4.8 3.6 10.7 5.7 17.2 5.7s12.4-2.1 17.2-5.7V5.3C74.8 1.7 68.9-.4 62.4-.4 55.9-.5 50 1.7 45.2 5.3z"/><path class="st1" d="M62.4 44.9h.6l-.2-7.8c0-.3.3-.5.5-.5 2.4.3 4.6.6 7.1.9l-.6-2.1c-.1-.4 0-.8.3-1l7.1-6-1.5-.7c-.6-.2-.5-.6-.2-1.5l1.1-4.1-4.1.9c-.4.1-.7-.2-.7-.5l-.5-1.9-3.3 3.7c-.5.6-1.4.6-1.1-.8l1.4-7.7-1.9 1c-.5.3-1.1.4-1.3-.2l-2.6-5-2.6 5c-.3.5-.8.5-1.3.2l-1.9-1 1.4 7.7c.3 1.4-.6 1.4-1.1.8l-3.3-3.8-.7 1.9c-.1.3-.3.5-.7.5l-4.1-.9 1.1 4.1c.2.9.4 1.3-.2 1.5l-1.5.7 7.1 6c.3.2.4.6.3 1l-.6 2.1c2.4-.3 4.6-.6 7.1-.9.2 0 .5.2.5.5l-.2 7.8h.6z"/></g><defs><path id="SVGID_3_" d="M31.4 28c0-9.6 4.4-18.2 11.2-23.9C38.4 1.5 33.4 0 28 0 12.5 0 0 12.5 0 28s12.5 28 28 28c5.4 0 10.4-1.5 14.6-4.1-6.8-5.7-11.2-14.3-11.2-23.9z"/></defs><clipPath id="SVGID_4_"><use xlink:href="#SVGID_3_" overflow="visible"/></clipPath><g clip-path="url(#SVGID_4_)"><circle cx="28" cy="28.2" r="29.3"/><path class="st2" d="M-.2 34.9H56c.4-1.4.6-3 .7-4.4H-.8c.1 1.4.3 3 .6 4.4zM3.6 43.8h48.7c.9-1.4 1.7-2.9 2.3-4.4H1.3c.7 1.5 1.4 3 2.3 4.4zM12.6 52.7h30.8c2-1.2 3.8-2.8 5.5-4.4H7.1c1.7 1.6 3.5 3.1 5.5 4.4zM43.3 3.8H12.6c-2 1.2-3.8 2.8-5.5 4.4h41.7c-1.7-1.7-3.5-3.2-5.5-4.4z"/><path class="st4" d="M1.3 39.3h53.4c.6-1.4 1.1-2.9 1.4-4.4H-.2c.4 1.5.9 3 1.5 4.4zM7.1 48.2h41.7c1.3-1.3 2.5-2.9 3.5-4.4H3.6c1 1.5 2.2 3.1 3.5 4.4zM28 57.1c5.6 0 10.9-1.6 15.4-4.4H12.6c4.4 2.8 9.7 4.4 15.4 4.4zM-.2 21.5H56c-.4-1.5-.9-3.1-1.4-4.4H1.3C.7 18.5.2 20-.2 21.5zM-.9 28.2c0 .8 0 1.5.1 2.2h57.6c.1-.8.1-1.4.1-2.2 0-.8 0-1.5-.1-2.2H-.8c-.1.8-.1 1.4-.1 2.2zM7.1 8.2c-1.3 1.3-2.5 2.9-3.5 4.4h48.7c-1.1-1.6-2.2-3.1-3.5-4.4H7.1zM28-.7C22.4-.7 17.1.9 12.6 3.7h30.8C38.9.9 33.6-.7 28-.7z"/><path class="st2" d="M-.8 26h57.6c-.1-1.5-.4-3-.7-4.4H-.2C-.5 23-.7 24.5-.8 26zM1.3 17.1h53.4c-.7-1.5-1.4-3.1-2.3-4.4H3.6C2.7 14 2 15.6 1.3 17.1z"/><g><path d="M27.9-.7C11.9-.7-1 12.2-1 28.2c0 .8 0 1.5.1 2.3h28.8V-.7z" fill="#002868"/><path class="st2" d="M.8 18.2c0 .1-.1.2-.1.3l.1-.3zM.5 19.2c-.1.3-.2.6-.3 1l.3-1zM1.9 28.8l-.9-.6-.9.6.4-1-.8-.6h1l.3-1 .4 1h1l-.8.6zM5.8 24.5l-.9-.7-.8.7.2-1.1-.8-.6h1l.4-.9.3.9h1.1l-.9.6zM5.5 14.6l.4 1.1L5 15l-.8.7.2-1.1-.8-.6h1l.4-.9.3.9h1.1zM9.8 28.8l-.9-.6-.8.6.3-1-.9-.6h1.2l.2-1 .3 1h1.1l-.9.6zM9.8 18.9l-.4.3.4 1-.9-.6-.8.6.3-1-.4-.3-.5-.4h1.2l.2-.9.3.9h1.1zM9.4 10.2l.4 1-.9-.6-.8.6.3-1-.9-.7h1.2l.2-.9.3.9h1.1zM13.6 24.8l-.8-.6-.9.6.4-1-.9-.7h1.1l.3-.9.4.9h1l-.9.7zM13.4 15l.3.9-.8-.5-.9.5.4-.9-.9-.7h1.1l.3-.9.4.9h1zM13.5 6.1l.3.9-.8-.5-.9.5.3-.9-.8-.7h1.1l.3-.9.3.9h1zM17.7 28.8l-.9-.6-.8.6.3-1-.8-.6h1l.3-1 .4 1h1l-.8.6zM17.8 18.9l-.4.3.3 1-.9-.6-.8.6.3-1-.4-.3-.4-.4h1l.3-.9.4.9h1zM17.4 10.2l.3 1-.9-.6-.8.6.3-1-.8-.7h1l.3-.9.4.9h1zM21.6 24.8l-.9-.6-.8.6.2-1-.8-.7h1.1l.3-.9.3.9h1.1l-.9.7zM21.3 15l.4.9-.9-.5-.8.5.2-.9-.8-.7h1l.4-.9.3.9h1.1zM21.4 6.1l.4.9-.9-.5-.9.5.3-.9-.8-.7h1l.4-.9.3.9h1.1zM25.6 28.8l-.9-.6-.8.6.4-1-.9-.6h1.1l.2-1 .3 1h1.1l-.8.6zM25.7 18.9l-.4.3.3 1-.9-.6-.8.6.4-1-.4-.3-.5-.4h1.1l.2-.9.3.9h1.1zM25.3 10.2l.3 1-.9-.6-.8.6.4-1-.9-.7h1.1l.2-.9.3.9h1.1zM25.3 1.4l.3 1-.9-.6-.8.6.4-1-.9-.7h1.1l.2-.9.3.9h1.1zM16.8 1.8l.9.6-.3-1 .1-.1c-.5.2-.9.4-1.3.6l-.2.6.8-.7z"/><path class="st2" d="M16.8 8.6l-.3.9h-1l.8.7-.3 1 .8-.6.9.6-.3-1 .8-.7h-1zM16.8 17.6l-.3.9h-1l.4.4.4.3-.3 1 .8-.6.9.6-.3-1 .4-.3.4-.4h-1zM17.2 27.2l-.4-1-.3 1h-1l.8.6-.3 1 .8-.6.9.6-.3-1 .8-.6zM8.9 8.6l-.2.9H7.5l.9.7-.3 1 .8-.6.9.6-.4-1 .9-.7H9.2zM8.9 17.6l-.2.9H7.5l.5.4.4.3-.3 1 .8-.6.9.6-.4-1 .4-.3.5-.4H9.2zM9.2 27.2l-.3-1-.2 1H7.5l.9.6-.3 1 .8-.6.9.6-.4-1 .9-.6zM1 17.6l-.2.7c.1-.2.2-.4.2-.7z"/><path class="st2" d="M1.9 20.2l-.3-1.1.4-.3.5-.4H1.4l-.3-1-.3.6-.1.3c-.1.2-.1.4-.2.6l-.3 1v.1l.9-.6.8.8zM1.4 27.2l-.4-1-.3 1h-1l.8.6-.4 1 .9-.6.9.6-.3-1 .8-.6zM20.8 13.4l-.4.9h-1l.8.7-.2.9.8-.5.9.5-.4-.9.9-.7h-1.1zM21 23.1l-.3-.9-.3.9h-1.1l.8.7-.2 1 .8-.6.9.6-.4-1 .9-.7zM12.9 13.4l-.3.9h-1.1l.9.7-.4.9.9-.5.8.5-.3-.9.9-.7h-1zM13.2 23.1l-.4-.9-.3.9h-1.1l.9.7-.4 1 .9-.6.8.6-.3-1 .9-.7zM5 13.1l-.4.9h-1l.8.6-.2 1.1.8-.7.9.7-.4-1.1.9-.6H5.3zM5.2 22.8l-.3-.9-.4.9h-1l.8.6-.2 1.1.8-.7.9.7-.4-1.1.9-.6zM24.7 8.6l-.2.9h-1.1l.9.7-.4 1 .8-.6.9.6-.3-1 .8-.7H25zM13 4.5l-.3.9h-1.1l.8.7-.3.9.9-.5.8.5-.3-.9.8-.7h-1zM20.9 4.5l-.4.9h-1l.8.7-.3.9.9-.5.9.5-.4-.9.9-.7h-1.1zM24.7-.2l-.2.9h-1.1l.9.7-.4 1 .8-.6.9.6-.3-1 .8-.7H25zM24.7 17.6l-.2.9h-1.1l.5.4.4.3-.4 1 .8-.6.9.6-.3-1 .4-.3.4-.4H25zM25 27.2l-.3-1-.2 1h-1.1l.9.6-.4 1 .8-.6.9.6-.3-1 .8-.6z"/></g></g><g><path class="st6" d="M62.4.2C77.7.2 90.2 12.7 90.2 28S77.7 55.8 62.4 55.8 34.6 43.3 34.6 28 47.1.2 62.4.2m0-.2c-15.5 0-28 12.5-28 28s12.5 28 28 28 28-12.5 28-28-12.5-28-28-28z"/></g><g><path class="st6" d="M28 .2c5.1 0 10 1.4 14.3 3.9-7 6-11.1 14.7-11.1 23.9s4 17.9 11.1 23.9c-4.2 2.6-9.2 3.9-14.3 3.9C12.7 55.8.2 43.3.2 28S12.7.2 28 .2m0-.2C12.5 0 0 12.5 0 28s12.5 28 28 28c5.4 0 10.4-1.5 14.6-4.1-6.8-5.7-11.2-14.3-11.2-23.9S35.8 9.8 42.6 4.1C38.4 1.5 33.4 0 28 0z"/></g></svg>