<svg version="1.1" id="Layer_1" xmlns="http://www.w3.org/2000/svg" xmlns:xlink="http://www.w3.org/1999/xlink" x="0" y="0" viewBox="0 0 90.4 56" xml:space="preserve"><style>.st1{fill:#fff}.st2{fill:#bf0a30}.st5{fill:#01247d}.st6{fill:#cf142b}</style><defs><path id="SVGID_1_" d="M62.4 0c15.5 0 28 12.5 28 28s-12.5 28-28 28-28-12.5-28-28 12.5-28 28-28z"/></defs><clipPath id="SVGID_2_"><use xlink:href="#SVGID_1_" overflow="visible"/></clipPath><g clip-path="url(#SVGID_2_)"><circle cx="62.8" cy="28.3" r="30.6"/><path class="st1" d="M33.4 35.3h58.7c.4-1.5.6-3.1.7-4.6H32.7c.1 1.5.3 3.1.7 4.6zM37.3 44.6h50.9c.9-1.5 1.8-3 2.4-4.6H34.9c.7 1.6 1.5 3.1 2.4 4.6zM46.7 53.9h32.2c2.1-1.3 4-2.9 5.7-4.6H41c1.7 1.7 3.6 3.2 5.7 4.6zM78.8 2.8H46.7c-2.1 1.3-4 2.9-5.7 4.6h43.5c-1.7-1.8-3.6-3.3-5.7-4.6z"/><path class="st2" d="M34.9 39.9h55.8c.6-1.5 1.1-3 1.5-4.6H33.4c.4 1.6.9 3.1 1.5 4.6zM41 49.2h43.5c1.4-1.4 2.6-3 3.7-4.6H37.3c1.1 1.6 2.3 3.2 3.7 4.6zM62.8 58.5c5.9 0 11.4-1.7 16.1-4.6H46.7c4.6 2.9 10.1 4.6 16.1 4.6zM33.4 21.3h58.7c-.4-1.6-.9-3.2-1.5-4.6H34.9c-.6 1.5-1.1 3-1.5 4.6zM32.6 28.3c0 .8 0 1.6.1 2.3h60.2c.1-.8.1-1.5.1-2.3s0-1.6-.1-2.3H32.7c-.1.8-.1 1.5-.1 2.3zM41 7.4c-1.4 1.4-2.6 3-3.7 4.6h50.9c-1.1-1.7-2.3-3.2-3.7-4.6H41zM62.8-1.9c-5.9 0-11.4 1.7-16.1 4.6h32.2C74.2-.2 68.7-1.9 62.8-1.9z"/><path class="st1" d="M32.7 26h60.2c-.1-1.6-.4-3.1-.7-4.6H33.4c-.4 1.5-.6 3-.7 4.6zM34.9 16.7h55.8c-.7-1.6-1.5-3.2-2.4-4.6h-51c-.9 1.4-1.7 3-2.4 4.6z"/><g><path d="M62.7-1.9C46-1.9 32.5 11.6 32.5 28.3c0 .8 0 1.6.1 2.4h30.1V-1.9z" fill="#002868"/><path class="st1" d="M34.4 17.9c0 .1-.1.2-.1.3l.1-.3zM34.1 18.9c-.1.3-.2.6-.3 1l.3-1zM35.5 28.9l-.9-.6-.9.6.4-1-.9-.7h1.1l.3-1 .4 1h1.1l-.9.7zM39.6 24.4l-.9-.7-.9.7.3-1.1-.9-.6h1.1l.4-1 .3 1h1.1l-.9.6zM39.3 14.1l.4 1.1-.9-.7-.9.7.3-1.1-.9-.6h1.1l.4-1 .3 1h1.1zM43.8 28.9l-.9-.6-.9.6.3-1-.9-.7h1.2l.3-1 .3 1h1.1l-.9.7zM43.8 18.6l-.4.3.4 1-.9-.6-.9.6.3-1-.4-.3-.5-.4h1.2l.3-1 .3 1h1.1zM43.4 9.5l.4 1-.9-.6-.9.6.3-1-.9-.7h1.2l.3-1 .3 1h1.1zM47.8 24.7l-.9-.6-.9.6.4-1-.9-.7h1.1l.3-1 .4 1h1.1l-.9.7zM47.6 14.5l.3 1-.9-.6-.9.6.4-1-.9-.7h1.1l.3-1 .4 1h1.1zM47.7 5.2l.3 1-.9-.6-.9.6.3-1-.8-.7h1.1l.3-1 .3 1h1.1zM52 28.9l-.9-.6-.8.6.3-1-.9-.7h1.1l.3-1 .4 1h1.1l-.9.7zM52.1 18.6l-.4.3.3 1-.9-.6-.8.6.3-1-.4-.3-.5-.4h1.1l.3-1 .4 1h1.1zM51.7 9.5l.3 1-.9-.6-.8.6.3-1-.9-.7h1.1l.3-1 .4 1h1.1zM56.1 24.7l-.9-.6-.9.6.3-1-.9-.7h1.2l.3-1 .3 1h1.1l-.9.7zM55.8 14.5l.4 1-.9-.6-.9.6.3-1-.9-.7h1.1l.4-1 .3 1h1.1zM55.9 5.2l.4 1-.9-.6-.9.6.3-1-.9-.7H55l.4-1 .3 1h1.1zM60.3 28.9l-.9-.6-.9.6.4-1-.9-.7h1.1l.3-1 .3 1h1.1l-.8.7zM60.4 18.6l-.4.3.3 1-.9-.6-.9.6.4-1-.4-.3-.5-.4h1.1l.3-1 .3 1h1.1zM60 9.5l.3 1-.9-.6-.9.6.4-1-.9-.7h1.1l.3-1 .3 1h1.1zM60 .3l.3 1-.9-.6-.9.6.4-1-.9-.7h1.1l.3-1 .3 1h1.1zM51.1.7l.9.6-.3-1 .1-.1c-.5.2-.9.4-1.4.6l-.2.6.9-.7z"/><path class="st1" d="M51.1 7.8l-.3 1h-1.1l.9.7-.3 1 .8-.6.9.6-.3-1 .9-.7h-1.1zM51.1 17.2l-.3 1h-1.1l.5.4.4.3-.3 1 .8-.6.9.6-.3-1 .4-.3.5-.4h-1.1zM51.5 27.2l-.4-1-.3 1h-1.1l.9.7-.3 1 .8-.6.9.6-.3-1 .9-.7zM42.9 7.8l-.3 1h-1.2l.9.7-.3 1 .9-.6.9.6-.4-1 .9-.7h-1.1zM42.9 17.2l-.3 1h-1.2l.5.4.4.3-.3 1 .9-.6.9.6-.4-1 .4-.3.5-.4h-1.1zM43.2 27.2l-.3-1-.3 1h-1.2l.9.7-.3 1 .9-.6.9.6-.4-1 .9-.7zM34.6 17.2l-.2.7c.1-.2.2-.4.2-.7z"/><path class="st1" d="M35.5 19.9l-.3-1.1.4-.3.5-.4H35l-.3-1-.3.6-.1.3c-.1.2-.1.4-.2.6l-.3 1v.1l.9-.6.8.8zM35 27.2l-.4-1-.3 1h-1.1l.9.7-.4 1 .9-.6.9.6-.3-1 .9-.7zM55.3 12.8l-.4 1h-1.1l.9.7-.3 1 .9-.6.9.6-.4-1 .9-.7h-1.1zM55.5 23l-.3-1-.3 1h-1.2l.9.7-.3 1 .9-.6.9.6-.4-1 .9-.7zM47 12.8l-.3 1h-1.1l.9.7-.4 1 .9-.6.9.6-.3-1 .9-.7h-1.1zM47.3 23l-.4-1-.3 1h-1.1l.9.7-.4 1 .9-.6.9.6-.3-1 .9-.7zM38.8 12.5l-.4 1h-1.1l.9.6-.3 1.1.9-.7.9.7-.4-1.1.9-.6h-1.1zM39 22.7l-.3-1-.4 1h-1.1l.9.6-.3 1.1.9-.7.9.7-.4-1.1.9-.6zM59.4 7.8l-.3 1H58l.9.7-.4 1 .9-.6.9.6-.3-1 .8-.7h-1.1zM47.1 3.5l-.3 1h-1.1l.8.7-.3 1 .9-.6.9.6-.3-1 .8-.7h-1.1zM55.4 3.5l-.4 1h-1.1l.9.7-.3 1 .9-.6.9.6-.4-1 .9-.7h-1.1zM59.4-1.4l-.3 1H58l.9.7-.4 1 .9-.6.9.6-.3-1 .8-.7h-1.1zM59.4 17.2l-.3 1H58l.5.4.4.3-.4 1 .9-.6.9.6-.3-1 .4-.3.4-.4h-1.1zM59.7 27.2l-.3-1-.3 1H58l.9.7-.4 1 .9-.6.9.6-.3-1 .8-.7z"/></g></g><g><defs><path id="SVGID_3_" d="M31.4 28c0-9.6 4.4-18.2 11.2-23.9C38.4 1.5 33.4 0 28 0 12.5 0 0 12.5 0 28s12.5 28 28 28c5.4 0 10.4-1.5 14.6-4.1-6.8-5.7-11.2-14.3-11.2-23.9z"/></defs><clipPath id="SVGID_4_"><use xlink:href="#SVGID_3_" overflow="visible"/></clipPath><g clip-path="url(#SVGID_4_)"><ellipse transform="matrix(.9997 -.02504 .02504 .9997 -.7 .657)" cx="25.9" cy="28.3" rx="29.4" ry="29.4"/><path class="st5" d="M-.9 17.1l-.9 2.4h4.6l-3.7-2.4zM52.7 39.5c.3-.8.6-1.6.9-2.5H49l3.7 2.5zM5.3 48.7c3.3 3.3 7.3 5.8 11.9 7.3V40.8L5.3 48.7zM17.2.5C12.6 2 8.5 4.5 5.3 7.8l11.9 8V.5zM53.6 19.5l-.9-2.4-3.7 2.4h4.6zM34.6 56c4.6-1.4 8.6-3.9 11.9-7.3l-11.9-7.9V56zM-1.8 37c.3.8.6 1.7.9 2.5L2.8 37h-4.6zM46.5 7.8C43.3 4.5 39.2 2 34.6.5v15.2l11.9-7.9z"/><path class="st1" d="M54.5 33.3H31v23.5c1.2-.2 2.5-.5 3.6-.9V40.8l11.9 7.9c1.3-1.4 2.6-2.8 3.6-4.4l-11-7.3H46l6 4c.2-.5.5-1 .7-1.5L49 37h4.6c.4-1.2.7-2.4.9-3.7zM17.2.5v15.2l-11.9-8C4 9.2 2.8 10.6 1.7 12.2l11.1 7.4H6l-6.1-4.1c-.3.5-.5 1.1-.7 1.6l3.7 2.4h-4.6c-.4 1.2-.7 2.4-.9 3.6h23.5V-.3c-1.3.2-2.5.5-3.7.8zM-2.7 33.3c.2 1.2.5 2.4.9 3.6h4.6l-3.7 2.5c.7 1.7 1.6 3.3 2.6 4.8l11-7.3h4.5v1.6L4 47.3c.4.5.8.9 1.3 1.4l11.9-7.9V56c1.2.4 2.4.7 3.6.9V33.3H-2.7zM53.6 19.5H49l3.7-2.4c-.7-1.8-1.6-3.4-2.7-5l-11.1 7.4h-4.3v-1.7l13.1-8.7c-.4-.4-.8-.9-1.2-1.3l-11.9 8V.5C33.4.1 32.2-.2 31-.4v23.5h23.5c-.2-1.2-.5-2.4-.9-3.6z"/><path class="st6" d="M54.5 23.2H31V-.3c-1.7-.3-3.3-.5-5.1-.5-1.7 0-3.4.2-5.1.5v23.5H-2.7c-.3 1.7-.5 3.3-.5 5.1 0 1.7.2 3.4.5 5.1h23.5v23.5c1.6.3 3.3.5 5.1.5 1.7 0 3.4-.2 5.1-.5V33.3h23.5c.3-1.7.5-3.3.5-5.1-.1-1.7-.2-3.4-.5-5z"/><path class="st6" d="M39.2 37l11 7.3c.7-1.1 1.3-2.2 1.9-3.3l-6-4h-6.9zM34.6 19.5h4.3L50 12.1c-.7-1.1-1.5-2.1-2.3-3l-13.1 8.7v1.7zM17.2 37h-4.5l-11 7.3c.7 1.1 1.5 2.1 2.3 3l13.2-8.8V37zM12.9 19.5L1.7 12.2C1 13.3.4 14.4-.2 15.5l6.2 4h6.9z"/></g></g></svg>