<svg width="93" height="62" viewBox="0 0 93 62" fill="none" xmlns="http://www.w3.org/2000/svg">
<path d="M28.5637 4.86929L36.8658 2.17179L41.2088 12.7133L47.0597 44.845L45.3953 45.3721L31.2463 15.9503L28.5637 4.86929Z" fill="#F8FCE8"/>
<path d="M55.5456 2.18254L63.8508 4.88751L61.1788 15.966L47.0564 45.3858L45.399 44.833L51.2133 12.7192L55.5456 2.18254Z" fill="#F8FCE8"/>
<path d="M78.9693 15.8891L84.1047 22.9652L75.439 30.3486L46.7365 45.8192L45.7197 44.3962L69.2766 21.8574L78.9693 15.8891Z" fill="#F8FCE8"/>
<path d="M2.57001 49.4541L2.56533 40.7109L13.915 39.8422L46.2339 44.2304L46.2218 45.9785L13.9206 50.3338L2.57001 49.4541Z" fill="#F8FCE8"/>
<path d="M89.8858 40.7593L89.8905 49.5025L78.5408 50.3713L46.2219 45.983L46.234 44.2349L78.5353 39.8796L89.8858 40.7593Z" fill="#F8FCE8"/>
<path d="M8.32841 22.9263L13.4567 15.8565L23.1557 21.8342L46.7455 44.405L45.7098 45.8108L17.0011 30.3187L8.32841 22.9263Z" fill="#F8FCE8"/>
<path d="M28.5637 4.86929L36.8658 2.17179L41.2088 12.7133L47.0597 44.845L45.3953 45.3721L31.2463 15.9503L28.5637 4.86929Z" fill="#F8FCE8"/>
</svg>
