<svg xmlns="http://www.w3.org/2000/svg" width="608" height="472" viewBox="0 0 608 472" fill="none">
    <g clip-path="url(#clip0_105_2)">
    <mask id="mask0_105_2" style="mask-type:luminance" maskUnits="userSpaceOnUse" x="0" y="0" width="608" height="472">
    <path d="M608 0H0V472H608V0Z" fill="white"/>
    </mask>
    <g mask="url(#mask0_105_2)">
    <path d="M577.113 440.599L305.136 31.999L32.3169 440.599H412.406L305.136 284.648L251.924 365.67H195.333L305.133 202.755L463.93 440.599H577.113Z" fill="url(#paint0_linear_105_2)"/>
    </g>
    <path d="M451.343 308.727L401.953 450H357.805L308.415 308.727H349.803L379.143 409.807H380.615L409.863 308.727H451.343ZM471.026 450V421.304L538.075 359.221C543.777 353.703 548.56 348.736 552.423 344.321C556.347 339.907 559.321 335.584 561.344 331.353C563.368 327.061 564.38 322.431 564.38 317.465C564.38 311.946 563.123 307.194 560.609 303.209C558.095 299.162 554.661 296.065 550.308 293.919C545.954 291.712 541.018 290.608 535.5 290.608C529.736 290.608 524.708 291.773 520.416 294.103C516.124 296.433 512.813 299.775 510.483 304.129C508.153 308.482 506.988 313.663 506.988 319.672H469.186C469.186 307.348 471.976 296.648 477.556 287.573C483.136 278.498 490.953 271.478 501.009 266.511C511.065 261.544 522.654 259.061 535.776 259.061C549.265 259.061 561.007 261.452 571.002 266.235C581.058 270.956 588.875 277.517 594.455 285.918C600.035 294.318 602.825 303.945 602.825 314.798C602.825 321.91 601.415 328.931 598.594 335.86C595.835 342.788 590.899 350.484 583.786 358.945C576.674 367.346 566.648 377.432 553.711 389.205L526.21 416.153V417.441H605.308V450H471.026Z" fill="white"/>
    </g>
    <defs>
    <linearGradient id="paint0_linear_105_2" x1="324.328" y1="42.6226" x2="145.863" y2="484.079" gradientUnits="userSpaceOnUse">
    <stop stop-color="#03D1CF" stop-opacity="0.988"/>
    <stop offset="1" stop-color="#4E09F8"/>
    </linearGradient>
    <clipPath id="clip0_105_2">
    <rect width="608" height="472" fill="white"/>
    </clipPath>
    </defs>
</svg>