<svg width="32" height="32" viewBox="0 0 32 32" fill="none" xmlns="http://www.w3.org/2000/svg">
<path d="M24.4487 21.0419C24.0194 20.6604 23.4709 20.4457 22.8986 20.4457C22.2547 20.4457 21.6585 20.708 21.2054 21.185C19.5361 22.9974 18.0337 23.689 15.8874 23.689C13.6457 23.689 12.0956 22.9736 10.4024 21.1612C9.97318 20.708 9.35314 20.4219 8.7331 20.4219C8.16076 20.4219 7.58842 20.6365 7.15916 21.0419C6.25295 21.9243 6.20526 23.379 7.06377 24.2852C9.63931 27.0277 12.3579 28.2677 15.8874 28.2677C19.3453 28.2677 22.0162 27.0277 24.5679 24.2852C25.4503 23.3551 25.3787 21.9004 24.4487 21.0419Z" fill="url(#paint0_linear_48765_119371)"/>
<path d="M24.4005 16.4878C25.8361 16.4878 26.9999 15.3241 26.9999 13.8885C26.9999 12.4528 25.8361 11.2891 24.4005 11.2891C22.9649 11.2891 21.8011 12.4528 21.8011 13.8885C21.8011 15.3241 22.9649 16.4878 24.4005 16.4878Z" fill="url(#paint1_linear_48765_119371)"/>
<path d="M6.25257 16.0815C5.03634 15.3422 4.63093 13.7444 5.37021 12.5282L9.71047 5.30237C10.4498 4.08615 12.0475 3.68074 13.2638 4.42001C14.48 5.15929 14.8854 6.75708 14.1461 7.97331L9.80587 15.1753C9.06659 16.4154 7.4688 16.7969 6.25257 16.0815Z" fill="url(#paint2_linear_48765_119371)"/>
<path d="M14.6231 16.0815C13.4068 15.3422 13.0014 13.7444 13.7407 12.5282L18.081 5.30237C18.8202 4.08615 20.418 3.68074 21.6343 4.42001C22.8505 5.15929 23.2559 6.75708 22.5166 7.97331L18.2002 15.1753C17.4609 16.4154 15.8631 16.7969 14.6231 16.0815Z" fill="url(#paint3_linear_48765_119371)"/>
<defs>
<linearGradient id="paint0_linear_48765_119371" x1="17.5774" y1="24.5234" x2="4.5007" y2="11.1878" gradientUnits="userSpaceOnUse">
<stop stop-color="#5ACEFF"/>
<stop offset="1" stop-color="#00EEEA"/>
</linearGradient>
<linearGradient id="paint1_linear_48765_119371" x1="26.2189" y1="15.7529" x2="14.2509" y2="3.54791" gradientUnits="userSpaceOnUse">
<stop stop-color="#5ACEFF"/>
<stop offset="1" stop-color="#00EEEA"/>
</linearGradient>
<linearGradient id="paint2_linear_48765_119371" x1="20.5788" y1="21.2826" x2="8.61084" y2="9.07759" gradientUnits="userSpaceOnUse">
<stop stop-color="#5ACEFF"/>
<stop offset="1" stop-color="#00EEEA"/>
</linearGradient>
<linearGradient id="paint3_linear_48765_119371" x1="24.8548" y1="17.0896" x2="12.8868" y2="4.88463" gradientUnits="userSpaceOnUse">
<stop stop-color="#5ACEFF"/>
<stop offset="1" stop-color="#00EEEA"/>
</linearGradient>
</defs>
</svg>
