<?xml version="1.0" encoding="utf-8"?>
<svg xmlns="http://www.w3.org/2000/svg" width="20" height="20" viewBox="0 0 20 20" fill="none">
  <g clipPath="url(#clip0_2683_202)">
    <path
      d="M10 20C15.5417 20 20 15.5417 20 10C20 4.4583 15.5417 0 10 0C4.4583 0 0 4.4583 0 10C0 15.5417 4.4583 20 10 20Z"
      fill="#fc4b23"
    />
    <path
      d="M12.75 11.583C12.75 10.1247 11.875 9.62471 10.125 9.41641C8.87505 9.24971 8.62505 8.91641 8.62505 8.33301C8.62505 7.74961 9.04175 7.37471 9.87505 7.37471C10.625 7.37471 11.0417 7.62471 11.25 8.24971C11.2917 8.37471 11.4167 8.45801 11.5417 8.45801H12.2083C12.375 8.45801 12.5 8.33301 12.5 8.16641V8.12471C12.3333 7.20801 11.5833 6.49971 10.625 6.41641V5.41641C10.625 5.24971 10.5 5.12471 10.2917 5.08301H9.66675C9.50005 5.08301 9.37505 5.20801 9.33335 5.41641V6.37471C8.08335 6.54141 7.29175 7.37471 7.29175 8.41641C7.29175 9.79141 8.12505 10.333 9.87505 10.5414C11.0417 10.7497 11.4167 10.9997 11.4167 11.6664C11.4167 12.3331 10.8333 12.7914 10.0417 12.7914C8.95835 12.7914 8.58335 12.333 8.45835 11.708C8.41675 11.5414 8.29175 11.458 8.16675 11.458H7.45835C7.29175 11.458 7.16675 11.583 7.16675 11.7497V11.7914C7.33335 12.833 8.00005 13.583 9.37505 13.7914V14.7914C9.37505 14.958 9.50005 15.083 9.70835 15.1247H10.3333C10.5 15.1247 10.625 14.9997 10.6667 14.7914V13.7914C11.9167 13.583 12.75 12.708 12.75 11.583Z"
      fill="white"
    />
    <path
      d="M7.87508 15.9586C4.62508 14.792 2.95838 11.167 4.16678 7.95859C4.79178 6.20859 6.16678 4.87529 7.87508 4.25029C8.04178 4.16699 8.12508 4.04199 8.12508 3.83359V3.25029C8.12508 3.08359 8.04178 2.95859 7.87508 2.91699C7.83338 2.91699 7.75008 2.91699 7.70838 2.95859C3.75008 4.20859 1.58338 8.41699 2.83338 12.3753C3.58338 14.7086 5.37508 16.5003 7.70838 17.2503C7.87508 17.3336 8.04178 17.2503 8.08338 17.0836C8.12508 17.042 8.12508 17.0003 8.12508 16.917V16.3336C8.12508 16.2086 8.00008 16.042 7.87508 15.9586ZM12.2918 2.95859C12.1251 2.87529 11.9584 2.95859 11.9168 3.12529C11.8751 3.16699 11.8751 3.20859 11.8751 3.29199V3.87529C11.8751 4.04199 12.0001 4.20859 12.1251 4.29199C15.3751 5.45859 17.0418 9.08359 15.8334 12.292C15.2084 14.042 13.8334 15.3753 12.1251 16.0003C11.9584 16.0836 11.8751 16.2086 11.8751 16.417V17.0003C11.8751 17.167 11.9584 17.292 12.1251 17.3336C12.1668 17.3336 12.2501 17.3336 12.2918 17.292C16.2501 16.042 18.4168 11.8336 17.1668 7.87529C16.4168 5.50029 14.5834 3.70859 12.2918 2.95859Z"
      fill="white"
    />
  </g>
  <defs>
    <clipPath id="clip0_2683_202">
      <rect width="20" height="20" fill="white" />
    </clipPath>
  </defs>
</svg>