<svg version="1.1" id="Layer_1" xmlns="http://www.w3.org/2000/svg" x="0" y="0" viewBox="0 0 56 56" xml:space="preserve" enable-background="new 0 0 56 56"><style>.st2{fill-rule:evenodd;clip-rule:evenodd;fill:#fff}</style><path d="M28 0c15.5 0 28 12.5 28 28S43.5 56 28 56 0 43.5 0 28 12.5 0 28 0z" fill-rule="evenodd" clip-rule="evenodd" fill="#ababab"/><defs><filter id="Adobe_OpacityMaskFilter" filterUnits="userSpaceOnUse" x="9.3" y="15.9" width="38" height="20.6"><feColorMatrix values="1 0 0 0 0 0 1 0 0 0 0 0 1 0 0 0 0 0 1 0"/></filter></defs><mask maskUnits="userSpaceOnUse" x="9.3" y="15.9" width="38" height="20.6" id="b_1_"><g filter="url(#Adobe_OpacityMaskFilter)"><path id="a_2_" class="st2" d="M28.3-1.1c15.5 0 28 12.5 28 28s-12.5 28-28 28-28-12.5-28-28 12.6-28 28-28z"/></g></mask><g mask="url(#b_1_)"><path class="st2" d="M19.6 24.6H37l-4.3-8.7H24l-4.4 8.7zm10.3 11.9h17.4L43 27.8h-8.7l-4.4 8.7zm-20.6 0h17.4l-4.4-8.7h-8.7l-4.3 8.7z"/></g></svg>