<svg xmlns="http://www.w3.org/2000/svg" width="256" height="256" fill="none"><path d="M128 256a128 128 0 1 0 0-256 128 128 0 0 0 0 256z" fill="#000"/><g fill="#fff"><path d="M128.3 47a46.4 46.4 0 0 0-46.2 46.9v15.5h37.5V86.9a8.2 8.2 0 0 1 .6-3.1 7.8 7.8 0 0 1 4.3-4.3 8.2 8.2 0 0 1 3.1-.6h1.4c1 0 2.1.2 3.1.6a7.8 7.8 0 0 1 4.3 4.3 8.2 8.2 0 0 1 .6 3.1v60.2a37.8 37.8 0 0 0 37.6-37.7V93.9a47.2 47.2 0 0 0-28.5-43.4 47.4 47.4 0 0 0-17.8-3.5z"/><path d="M127.6 177.6h1.4c1.1 0 2.1-.2 3-.6a7.8 7.8 0 0 0 4.3-4.3 8.2 8.2 0 0 0 .6-3.1v-22.5h37.5v15.3a47.8 47.8 0 0 1-13.4 33.1 45.4 45.4 0 0 1-32.8 13.8 45.3 45.3 0 0 1-32.8-13.8A45.7 45.7 0 0 1 82 162.4v-15.3a37.8 37.8 0 0 1 37.6-37.7v60.2a8.2 8.2 0 0 0 .6 3.1 7.8 7.8 0 0 0 1.7 2.6c.8.7 1.6 1.3 2.6 1.7s2.1.6 3.1.6z"/></g></svg>